# xmcd
#
# Track frame offsets:
#	150
#	11048
#	19899
#	28771
#	37171
#	47670
#	57604
#	66386
#	77686
#	90629
#
# Disc length: 1424 seconds
#
# Revision: 0
# Processed by: cddbd v1.4PL0 Copyright (c) Steve Scherf et al.
# Submitted via: dBpowerAMP V4.0
#
DISCID=87058e0a
DTITLE=Various Artist - Blazing Country Dance Party
DYEAR=1900
DGENRE=Country
TTITLE0=Mama's Got the Know How
TTITLE1=Diggy Liggy Lo
TTITLE2=Colinda
TTITLE3=Schottische
TTITLE4=Fire on the Mountain
TTITLE5=Cajun Fiddle
TTITLE6=Sugar Foot Rag
TTITLE7=Devil's Dream
TTITLE8=Orange Blossom Special
TTITLE9=Ode to Big Mamou
EXTD=
EXTT0=
EXTT1=
EXTT2=
EXTT3=
EXTT4=
EXTT5=
EXTT6=
EXTT7=
EXTT8=
EXTT9=
PLAYORDER=
